# xmcd CD database file
#
# Track frame offsets:
#	150
#	16212
#	31512
#	43871
#	54577
#	67550
#	88589
#	103298
#	125053
#	156049
#	169823
#	185715
#	198616
#	216086
#	227676
#	247782
#	263673
#	286696
#	300276
#
# Disc length: 4262 seconds
#
# Revision: 2
# Processed by: cddbd v1.5.2PL0 Copyright (c) Steve Scherf et al.
# Submitted via: CDex 1.70beta3
#
DISCID=f610a413
DTITLE=Various Artist - DRIVIN' Perfect!! -Music for Holiday Drivers-
DYEAR=2007
DGENRE=Pop
TTITLE0=Pump It
TTITLE1=Cecilia
TTITLE2=You Can't Hurry Love
TTITLE3=A Hard Day's Night
TTITLE4=Up!
TTITLE5=The Tide Is High
TTITLE6=Jukebox
TTITLE7=My Sharona
TTITLE8=The Rockafeller Skank
TTITLE9=Tout, tout pour ma cherie
TTITLE10=Time of the Season
TTITLE11=My Cherie Amour
TTITLE12=The Reason
TTITLE13=Mas que Nada
TTITLE14=I Was Made for Lovin' You
TTITLE15=Go West
TTITLE16=Peter Gunn (Max Sedgley Remix)
TTITLE17=Many Rivers to Cross
TTITLE18=LOVE LOVE LOVE -English Version-
EXTD=YEAR: 2007
EXTT0=
EXTT1=
EXTT2=
EXTT3=
EXTT4=
EXTT5=
EXTT6=
EXTT7=
EXTT8=
EXTT9=
EXTT10=
EXTT11=
EXTT12=
EXTT13=
EXTT14=
EXTT15=
EXTT16=
EXTT17=
EXTT18=
PLAYORDER=
